<?xml version="1.0" encoding="UTF-8"?>
<svg width="48px" height="52px" viewBox="0 0 48 52" version="1.1" xmlns="http://www.w3.org/2000/svg" xmlns:xlink="http://www.w3.org/1999/xlink">
    <!-- Generator: Sketch 55.2 (78181) - https://sketchapp.com -->
    <title>Untitled 6</title>
    <desc>Created with Sketch.</desc>
    <g id="Page-1" stroke="none" stroke-width="1" fill="none" fill-rule="evenodd">
        <g id="noun_Arrow_2638251" fill="#000000" fill-rule="nonzero">
            <path d="M36.9,24.5 L43.9,20.4 C44.4,20.1 44.8,19.5 44.8,18.9 L44.8,4.9 C44.8,1.8 41.4,-0.2 38.7,1.4 L2.1,22.5 C-0.6,24.1 -0.6,28 2.1,29.5 L38.7,50.6 C41.4,52.2 44.8,50.2 44.8,47.1 L44.8,33.1 C44.8,32.5 44.5,31.9 43.9,31.6 L36.9,27.5 C35.7,26.8 35.7,25.2 36.9,24.5 Z" id="Path"></path>
            <path d="M45.5,31.5 L38.4,27.4 C37.3,26.8 37.3,25.2 38.4,24.6 L45.5,20.5 C46.6,19.9 47.9,20.7 47.9,21.9 L47.9,30.1 C47.9,31.3 46.6,32.1 45.5,31.5 Z" id="Path"></path>
        </g>
    </g>
</svg>