<?xml version="1.0" encoding="UTF-8"?>
<svg width="26px" height="26px" viewBox="0 0 26 26" version="1.1" xmlns="http://www.w3.org/2000/svg" xmlns:xlink="http://www.w3.org/1999/xlink">
    <!-- Generator: Sketch 55.2 (78181) - https://sketchapp.com -->
    <title>noun_chain link_589812</title>
    <desc>Created with Sketch.</desc>
    <g id="Page-1" stroke="none" stroke-width="1" fill="none" fill-rule="evenodd">
        <g id="noun_chain-link_589812" fill="#000000" fill-rule="nonzero">
            <g id="Group">
                <g id="Path">
                    <path d="M23.739,2.26 C21.01,-0.468 16.569,-0.468 13.84,2.26 L9.905,6.196 C11.595,5.885 13.358,6.092 14.948,6.809 L16.668,5.09 C17.838,3.92 19.741,3.92 20.91,5.09 C22.08,6.258 22.08,8.162 20.91,9.332 L19.191,11.051 L18.04,12.203 L16.668,13.574 C16.057,14.185 15.245,14.469 14.442,14.441 C13.855,14.421 13.277,14.226 12.781,13.865 C12.659,13.775 12.536,13.685 12.426,13.574 C12.315,13.463 12.225,13.342 12.135,13.219 C11.572,12.93 10.864,13.014 10.393,13.486 L8.654,15.224 C8.921,15.642 9.233,16.038 9.597,16.402 C9.961,16.767 10.358,17.078 10.776,17.345 C11.229,17.636 11.708,17.865 12.204,18.038 C13.993,18.673 15.986,18.561 17.7,17.698 C18.347,17.372 18.957,16.942 19.497,16.401 L19.806,16.092 L23.741,12.158 C26.469,9.432 26.469,4.99 23.739,2.26 Z"></path>
                    <path d="M11.052,19.191 L9.332,20.91 C8.162,22.08 6.259,22.08 5.089,20.91 C3.919,19.74 3.919,17.838 5.089,16.668 L6.809,14.947 L7.96,13.797 L9.332,12.426 C9.943,11.815 10.755,11.529 11.558,11.559 C12.145,11.579 12.723,11.772 13.219,12.135 C13.341,12.225 13.464,12.315 13.574,12.426 C13.685,12.535 13.775,12.658 13.865,12.781 C14.428,13.07 15.136,12.984 15.607,12.513 L17.345,10.775 C17.078,10.357 16.767,9.961 16.402,9.597 C16.039,9.232 15.642,8.919 15.224,8.654 C14.772,8.363 14.292,8.134 13.796,7.959 C12.007,7.326 10.014,7.437 8.3,8.301 C7.652,8.627 7.043,9.057 6.502,9.598 L6.194,9.905 L2.259,13.841 C-0.47,16.57 -0.47,21.011 2.259,23.739 C4.988,26.469 9.429,26.469 12.158,23.739 L16.093,19.805 C14.404,20.115 12.642,19.906 11.052,19.191 Z"></path>
                </g>
            </g>
        </g>
    </g>
</svg>