<?xml version="1.0" encoding="UTF-8"?>
<svg width="89px" height="89px" viewBox="0 0 89 89" version="1.1" xmlns="http://www.w3.org/2000/svg" xmlns:xlink="http://www.w3.org/1999/xlink">
    <!-- Generator: Sketch 55.1 (78136) - https://sketchapp.com -->
    <title>Untitled 2</title>
    <desc>Created with Sketch.</desc>
    <g id="Page-1" stroke="none" stroke-width="1" fill="none" fill-rule="evenodd">
        <g id="delete" fill="#000000" fill-rule="nonzero">
            <path d="M26.4,44.6 L4,21.4 C-1,16.4 -1,9 4,4 C9,-1 16.4,-1 21.4,4 L43.8,26.4 L66.2,4 C71.2,-1 79.5,-1 84.4,4 C89.4,9 89.4,17.3 84.4,22.2 L62,44.6 L84.4,67 C89.4,72 89.4,79.4 84.4,84.4 C79.4,89.4 72,89.4 67,84.4 L44.6,62 L22.2,84.4 C17.2,89.4 8.9,89.4 4,84.4 C-1,79.4 -1,71.1 4,66.2 L26.4,44.6 Z" id="Path"></path>
        </g>
    </g>
</svg>