<?xml version="1.0" encoding="UTF-8"?>
<svg width="94px" height="94px" viewBox="0 0 94 94" version="1.1" xmlns="http://www.w3.org/2000/svg" xmlns:xlink="http://www.w3.org/1999/xlink">
    <!-- Generator: Sketch 55.2 (78181) - https://sketchapp.com -->
    <title>noun_Search_693586</title>
    <desc>Created with Sketch.</desc>
    <g id="Page-1" stroke="none" stroke-width="1" fill="none" fill-rule="evenodd">
        <g id="noun_Search_693586" transform="translate(0.000000, 5.000000)" fill="#000000" fill-rule="nonzero">
            <path d="M6.3,78.2600091 C7.87297696,78.2627576 9.38170625,77.6362209 10.49,76.52 L21.34,65.68 C30.4022863,70.9291307 41.8598765,69.4405461 49.28,62.05 L49.28,62.05 C57.775582,53.5696384 58.3719889,39.9996271 50.6531571,30.8066362 C42.9343253,21.6136453 29.4657825,19.8531726 19.6434127,26.7533537 C9.82104301,33.6535348 6.90953235,46.920939 12.94,57.3 L2.11,68.13 C0.409526411,69.8249158 -0.101143578,72.3779399 0.816524753,74.596551 C1.73419308,76.815162 3.89909439,78.2615086 6.3,78.2600091 Z M25,37.73 C29.3981724,33.3351167 36.5260787,33.3368941 40.9220586,37.7339704 C45.3180386,42.1310468 45.3180386,49.2589532 40.9220586,53.6560296 C36.5260787,58.0531059 29.3981724,58.0548833 25,53.66 C20.6097512,49.2574522 20.6097512,42.1325478 25,37.73 Z M93.66,30.14 C93.66,31.7127338 93.0352339,33.2210525 91.9231432,34.3331432 C90.8110525,35.4452339 89.3027338,36.07 87.73,36.07 L66.24,36.07 C62.9649514,36.07 60.31,33.4150486 60.31,30.14 C60.31,26.8649514 62.9649514,24.21 66.24,24.21 L87.7,24.21 C90.9750486,24.21 93.63,26.8649514 93.63,30.14 L93.66,30.14 Z M38.86,0.5 L87.7,0.5 C90.9750486,0.5 93.63,3.15495143 93.63,6.43 C93.63,9.70504857 90.9750486,12.36 87.7,12.36 L38.86,12.36 C35.5849514,12.36 32.93,9.70504857 32.93,6.43 C32.93,3.15495143 35.5849514,0.5 38.86,0.5 Z M87.69,83.5 L54.29,83.5 C51.0149514,83.5 48.36,80.8450486 48.36,77.57 C48.36,74.2949514 51.0149514,71.64 54.29,71.64 L87.7,71.64 C90.9750486,71.64 93.63,74.2949514 93.63,77.57 C93.63,80.8450486 90.9750486,83.5 87.7,83.5 L87.69,83.5 Z M93.62,53.85 C93.62,55.4227338 92.9952339,56.9310525 91.8831432,58.0431432 C90.7710525,59.1552339 89.2627338,59.78 87.69,59.78 L69.9,59.78 C66.6249514,59.78 63.97,57.1250486 63.97,53.85 C63.97,50.5749514 66.6249514,47.92 69.9,47.92 L87.7,47.92 C89.2744679,47.92 90.7843041,48.5461364 91.8966827,49.6603908 C93.0090613,50.7746453 93.6326551,52.2855343 93.6300084,53.86 L93.62,53.85 Z" id="Shape"></path>
        </g>
    </g>
</svg>