<?xml version="1.0" encoding="UTF-8"?>
<svg width="90px" height="90px" viewBox="0 0 90 90" version="1.1" xmlns="http://www.w3.org/2000/svg" xmlns:xlink="http://www.w3.org/1999/xlink">
    <!-- Generator: Sketch 55.1 (78136) - https://sketchapp.com -->
    <title>Untitled</title>
    <desc>Created with Sketch.</desc>
    <g id="Page-1" stroke="none" stroke-width="1" fill="none" fill-rule="evenodd">
        <g id="prism" transform="translate(0.000000, 18.000000)" fill="#000000" fill-rule="nonzero">
            <path d="M87.71582,38.34277 L65.44531,32.73144 C65.28241,32.69055 65.12018,32.67755 64.95941,32.67742 L62.42218,28.28637 L86.90723,32.25683 C87.01563,32.27441 87.12403,32.28222 87.2295,32.28222 C88.19337,32.28222 89.04298,31.58398 89.20216,30.60253 C89.37892,29.51171 88.63771,28.48437 87.54786,28.30761 L60.17677,23.86962 C60.06953,23.85229 59.96406,23.85076 59.85902,23.85045 L57.18391,19.22081 L87.02443,22.27196 C87.09279,22.2788 87.16213,22.28221 87.22951,22.28221 C88.24318,22.28221 89.11232,21.51512 89.21681,20.48582 C89.32911,19.3867 88.53029,18.40477 87.43068,18.29246 L54.7146,14.94733 L47.40234,2.29248 C46.89746,1.41894 45.95849,0.87695 44.95019,0.87695 C44.94921,0.87695 44.94873,0.87695 44.94824,0.87695 C43.93896,0.87695 42.99951,1.42138 42.49609,2.2959 L34.60217,16.01032 L2.25927,24.58594 C1.19189,24.86914 0.55566,25.96387 0.83886,27.03125 C1.07616,27.92773 1.88574,28.51953 2.7705,28.51953 C2.94042,28.51953 3.11279,28.49805 3.28466,28.45215 L31.79131,20.89368 L16.83447,46.87891 C16.33203,47.75196 16.33301,48.83594 16.8374,49.70899 C17.34179,50.58106 18.28076,51.12305 19.28857,51.12305 L70.71191,51.12305 C71.7207,51.12305 72.66015,50.58008 73.16406,49.70606 C73.66797,48.83204 73.66797,47.74708 73.16308,46.87501 L67.70281,37.42524 L86.73925,42.22169 C86.90331,42.26271 87.06738,42.28224 87.22948,42.28224 C88.12401,42.28224 88.93846,41.67775 89.16698,40.77052 C89.43652,39.7002 88.78711,38.6123 87.71582,38.34277 Z M21.30957,47.12305 L44.95215,6.04737 L68.68653,47.12305 L21.30957,47.12305 Z" id="Shape"></path>
        </g>
    </g>
</svg>