<?xml version="1.0" encoding="UTF-8"?>
<svg width="41px" height="42px" viewBox="0 0 41 42" version="1.1" xmlns="http://www.w3.org/2000/svg" xmlns:xlink="http://www.w3.org/1999/xlink">
    <!-- Generator: Sketch 55.1 (78136) - https://sketchapp.com -->
    <title>Untitled</title>
    <desc>Created with Sketch.</desc>
    <g id="Page-1" stroke="none" stroke-width="1" fill="none" fill-rule="evenodd">
        <g id="tao" fill="#000000" fill-rule="nonzero">
            <path d="M20.536,33.721 C22.167,33.721 23.476,32.41 23.476,30.785 C23.476,29.16 22.166,27.851 20.536,27.851 C18.906,27.851 17.595,29.16 17.595,30.785 C17.595,32.41 18.905,33.721 20.536,33.721 Z M20.693,41.004 C31.716,41.004 40.689,32.029 40.689,21 C40.689,9.973 31.716,0.997 20.693,0.997 C9.67,0.997 0.689,9.973 0.689,21 C0.689,32.029 9.67,41.004 20.693,41.004 Z M20.536,7.71 C22.167,7.71 23.476,9.03 23.476,10.648 C23.476,12.269 22.166,13.589 20.536,13.589 C18.906,13.589 17.595,12.269 17.595,10.648 C17.595,9.03 18.905,7.71 20.536,7.71 Z M20.693,21 L20.693,21 C34.71,14.142 26.515,2.742 20.693,2.742 C30.773,2.742 38.961,10.913 38.961,21 C38.961,31.086 30.773,39.262 20.693,39.262 C14.857,39.262 6.683,27.863 20.693,21 Z" id="Shape"></path>
        </g>
    </g>
</svg>